PathFileType	4	(X/Y/Z)	C:/Users/opensim2020/Desktop/walking_exp_matlab/subject03_walking07_straight_01.trc	
DataRate	CameraRate	NumFrames	NumMarkers	Units	OrigDataRate	OrigDataStartFrame	OrigNumFrames	
100.00	100.00	4	46	mm	100.00	858	310	
Frame#	Time	LFHD			RFHD			LBHD			RBHD			C7			T10			CLAV			STRN			RBAK			LSHO			LUPA			LELB			LFRM			LWRA			LWRB			LFIN			RSHO			RUPA			RELB			RFRM			RWRA			RWRB			RFIN			LASI			RASI			LPSI			RPSI			LTHI			LKNE			LTIB			LANK			LHEE			LTOE			RTHI			RKNE			RTIB			RANK			RHEE			RTOE			*39			*40			*41			*42			*43			*44			*45			
		X1	Y1	Z1	X2	Y2	Z2	X3	Y3	Z3	X4	Y4	Z4	X5	Y5	Z5	X6	Y6	Z6	X7	Y7	Z7	X8	Y8	Z8	X9	Y9	Z9	X10	Y10	Z10	X11	Y11	Z11	X12	Y12	Z12	X13	Y13	Z13	X14	Y14	Z14	X15	Y15	Z15	X16	Y16	Z16	X17	Y17	Z17	X18	Y18	Z18	X19	Y19	Z19	X20	Y20	Z20	X21	Y21	Z21	X22	Y22	Z22	X23	Y23	Z23	X24	Y24	Z24	X25	Y25	Z25	X26	Y26	Z26	X27	Y27	Z27	X28	Y28	Z28	X29	Y29	Z29	X30	Y30	Z30	X31	Y31	Z31	X32	Y32	Z32	X33	Y33	Z33	X34	Y34	Z34	X35	Y35	Z35	X36	Y36	Z36	X37	Y37	Z37	X38	Y38	Z38	X39	Y39	Z39	X40	Y40	Z40	X41	Y41	Z41	X42	Y42	Z42	X43	Y43	Z43	X44	Y44	Z44	X45	Y45	Z45	X46	Y46	Z46	

194	1.930	1391.21997	331.21848	1620.70813	1524.17273	328.71115	1627.29370	1394.82336	204.30167	1574.35132	1526.05139	206.31470	1580.83093	1456.85327	176.97035	1417.97925	1452.61316	141.26151	1105.69116	1453.12903	298.26694	1340.21362	1441.60376	340.76868	1176.29517	1546.90637	124.11562	1242.94739	1301.80225	247.44170	1384.18237	1222.95605	258.93839	1195.22913	1206.34790	291.16495	1077.87317	1208.37317	366.73187	973.97681	1243.05945	437.78064	881.25372	1193.99597	413.59390	870.51141	1203.74219	470.66470	810.96631	1614.07422	253.59613	1363.45679	1679.87756	230.01451	1140.27563	1688.77100	230.60138	1026.68408	1689.13220	223.84821	889.60388	1651.07971	233.54565	789.80646	1697.82935	205.26242	790.59369	1681.77795	205.62378	714.05188	1328.78857	300.72382	938.12128	1565.09265	315.62540	947.94763	1388.83484	143.05377	962.08948	1536.05859	153.26588	973.93311	1276.40649	224.95349	635.95087	1292.33289	211.90865	455.87469	1301.29358	55.73660	328.75397	1346.65100	-88.22185	181.89902	1389.80542	-132.32310	195.19510	1368.62720	-38.29623	41.14640	1607.38757	297.27014	651.57245	1567.22632	343.39282	477.09442	1569.75574	327.35352	287.24817	1518.86108	335.33405	72.29616	1468.09827	292.31769	39.94959	1499.15466	478.48685	37.29822				1442.27979	246.80783	1681.08484															 
195	1.940	1392.05859	341.34592	1621.30530	1525.06616	339.22922	1627.88867	1396.09229	214.43742	1575.05115	1527.21460	217.03441	1581.49353	1458.41626	187.21854	1418.54297	1454.65430	151.70921	1106.34534	1453.95654	308.60559	1340.89539	1442.28857	351.11551	1177.02148	1548.94482	135.33658	1243.84131	1303.26526	256.97018	1385.11292	1224.46228	267.84445	1196.19165	1207.83289	298.31213	1078.21411	1209.55469	372.61725	973.26282	1243.92944	442.58032	879.32227	1195.00134	417.99112	869.12659	1204.98706	473.67804	807.75079	1615.01294	264.93280	1364.58936	1681.81677	242.48268	1141.57397	1690.86011	243.66742	1028.01611	1691.09839	238.36406	890.87354	1652.97534	248.88661	791.13892	1699.89172	220.74652	791.70569	1683.73315	221.59390	715.10193	1330.68054	311.36966	939.16827	1566.26367	326.23044	948.26770	1390.83484	152.77597	962.60077	1537.97070	164.20920	974.68146	1277.03918	239.90608	634.97498	1292.19287	232.15401	454.76144	1300.63354	75.33965	329.93185	1348.19971	-72.89143	188.56882	1392.20898	-116.52367	201.58665	1365.22656	-24.70651	46.48017	1608.38281	304.50748	651.76526	1568.19373	349.09772	476.75378	1570.25720	330.65234	287.29501	1518.75867	335.43365	72.35316	1468.12256	292.32501	40.02106	1499.03174	478.58408	37.19810				1444.85352	257.06384	1682.07056															 
196	1.950	1392.90259	351.35754	1621.91528	1525.90796	349.65146	1628.45081	1397.33862	224.52074	1575.59998	1528.52173	227.30342	1582.02551	1459.86365	197.15994	1418.98682	1456.70911	162.24756	1106.67249	1454.72815	318.73792	1341.51025	1442.84058	361.24106	1177.51477	1551.20569	145.36481	1244.65125	1304.45337	266.32645	1385.70557	1225.74829	276.60571	1196.46545	1209.20020	305.47281	1078.07141	1210.85278	378.58569	972.16309	1244.60193	447.23300	876.92841	1195.86255	422.36310	867.31128	1206.19495	476.39960	804.03455	1615.91663	276.29428	1365.31128	1683.85120	255.15701	1142.47522	1693.10034	256.84515	1028.96521	1693.15234	253.08261	891.72668	1654.68579	264.77939	792.27399	1701.79712	236.61339	792.43689	1685.80688	238.18622	715.88873	1331.24658	320.43420	939.19678	1567.21252	336.86832	948.19971	1392.65881	162.51578	962.44592	1539.93250	174.60368	975.24225	1277.77246	254.66382	634.29602	1292.01636	252.74037	453.91959	1301.31409	95.34258	331.52521	1349.70276	-56.34836	194.66507	1394.35962	-99.64731	206.86101	1361.52356	-8.38127	51.29649	1609.12500	311.64792	651.89984	1569.16895	354.64832	476.49380	1570.85889	333.79291	287.32156	1518.74731	335.54953	72.41167	1468.18311	292.39847	40.12790	1498.90051	478.72433	37.04380				1446.23389	267.22412	1682.72388															 
197	1.960	1393.75806	361.28448	1622.47534	1526.67798	360.01700	1628.97937	1398.56995	234.49458	1576.04712	1529.61841	237.92062	1582.42114	1461.26794	207.16991	1419.34558	1458.69653	172.46179	1106.95654	1455.43237	328.69241	1341.95093	1443.27600	371.13565	1177.83240	1553.24060	156.22310	1244.81067	1305.35620	275.51321	1385.91663	1226.91602	285.06308	1196.46985	1210.51782	312.36337	1077.48303	1211.66907	384.40140	970.57489	1245.26868	451.84604	874.18555	1196.63684	426.64536	865.03784	1207.32397	478.96469	799.98859	1616.83691	287.49557	1365.76233	1685.74854	267.71558	1143.03418	1695.30627	270.18085	1029.48425	1695.13562	268.06528	892.19238	1656.57043	280.44061	792.90619	1703.71765	252.87880	792.80194	1687.79968	255.40172	716.33099	1331.87622	329.49100	939.12189	1568.05591	347.43311	947.89404	1394.51880	171.89424	961.81512	1541.75647	184.83131	975.44775	1278.52466	269.29147	633.99335	1291.91370	273.41434	453.58673	1302.62549	115.15190	333.71567	1350.96179	-38.81388	199.44188	1396.32507	-81.73456	210.98761	1358.69995	9.36797	56.02101	1610.63989	319.34622	652.25818	1570.27515	359.91550	476.17010	1571.51563	336.73990	287.22949	1519.01416	335.91388	72.48370	1468.27673	292.40259	40.31120	1498.79529	478.83392	36.90314				1447.05017	277.04361	1683.02759															 
